#!OML:ASF I:\Actors\actors\Patient Classification 1\Patient 1\Session 1\Subject1.ASF
:FULLY-SPECIFIED
:DEGREES
595
root -0.168625 17.5835 7.79036 7.31583 -0.856775 -7.77323
lowerback 4.74856 2.80809 2.93503
upperback -7.72692 4.15892 0.596443
thorax -10.7541 1.81017 -1.57463
lowerneck -13.3043 -7.03142 -3.86109
upperneck 25.5494 -12.1646 10.857
head 11.4668 -4.65593 2.88336
rclavicle -3.88624e-014 3.18055e-015
rhumerus -21.2019 37.4399 -99.2862
rradius 100.107
rwrist -4.37167
rhand -5.42538 -60.1436
rfingers 7.12502
rthumb 20.3847 -1529.09
lclavicle -3.88624e-014 3.18055e-015
lhumerus -32.6302 -25.4442 102.456
lradius 89.4153
lwrist 4.00246
lhand -39.2537 -7.19006
lfingers 7.12502
lthumb -12.2483 22.4313
rfemur -0.975867 23.9245 24.8303
rtibia 2.04101
rfoot -12.0121 -22.6454
rtoes -0.452548
lfemur 6.8408 -40.1088 -16.2405
ltibia -3.62096
lfoot -15.5035 48.2912
ltoes 8.13235
596
root -0.164788 17.5859 7.7981 7.41805 -0.504249 -7.88607
lowerback 4.53683 2.54069 3.13297
upperback -7.70273 3.81409 0.675073
thorax -10.6072 1.63482 -1.54214
lowerneck -13.413 -6.90414 -3.62454
upperneck 25.6027 -11.948 10.5218
head 11.4471 -4.56907 2.7516
rclavicle 4.07509e-015 7.15625e-015
rhumerus -20.7565 36.1275 -99.4688
rradius 102.543
rwrist -6.06228
rhand -7.38475 -59.3266
rfingers 7.12502
rthumb 18.5007 -1528.47
lclavicle 4.07509e-015 7.15625e-015
lhumerus -32.858 -24.5508 102.205
lradius 89.608
lwrist 4.27856
lhand -39.298 -7.05415
lfingers 7.12502
lthumb -12.291 22.5646
rfemur -0.983277 24.0285 24.9571
rtibia 1.95118
rfoot -12.139 -23.0275
rtoes -0.0336148
lfemur 6.53479 -40.1119 -15.8612
ltibia -3.63716
lfoot -15.2051 47.9994
ltoes 7.75466
597
root -0.163775 17.586 7.80359 7.45761 -0.345619 -7.9544
lowerback 4.53072 2.35676 3.36651
upperback -7.75889 3.58695 0.644862
thorax -10.6623 1.50221 -1.67567
lowerneck -13.4782 -6.85719 -3.56602
upperneck 25.7701 -11.8877 10.4133
head 11.5068 -4.54075 2.71148
rclavicle 5.76476e-015 9.54166e-015
rhumerus -20.4127 34.6409 -99.7271
rradius 104.497
rwrist -7.41946
rhand -8.73851 -58.6967
rfingers 7.12502
rthumb 17.1981 -1527.96
lclavicle 5.76476e-015 9.54166e-015
lhumerus -33.2213 -23.911 101.959
lradius 89.8186
lwrist 4.61404
lhand -39.259 -6.86595
lfingers 7.12502
lthumb -12.2534 22.7551
rfemur -0.955145 24.1698 25.057
rtibia 1.89966
rfoot -12.2256 -23.2805
rtoes 0.295778
lfemur 6.33288 -39.8473 -15.5837
ltibia -3.64964
lfoot -14.9985 47.6239
ltoes 7.55508
598
root -0.16468 17.584 7.80702 7.4404 -0.330131 -7.96335
lowerback 4.58773 2.24128 3.48886
upperback -7.83772 3.44418 0.602651
thorax -10.7841 1.41682 -1.77502
lowerneck -13.4166 -6.78216 -3.55543
upperneck 25.9255 -11.7946 10.3792
head 11.5425 -4.49884 2.71584
rclavicle 2.48481e-015 -2.3059e-014
rhumerus -19.7334 34.1849 -99.6809
rradius 104.858
rwrist -8.94708
rhand -9.09205 -58.1278
rfingers 7.12502
rthumb 16.8578 -1527.42
lclavicle 2.48481e-015 -2.3059e-014
lhumerus -33.5941 -23.5113 101.804
lradius 89.9938
lwrist 4.83244
lhand -39.319 -6.72681
lfingers 7.12502
lthumb -12.3112 22.8908
rfemur -0.88297 24.3197 25.1126
rtibia 1.86618
rfoot -12.2531 -23.4419
rtoes 0.418434
lfemur 6.29526 -39.6479 -15.5163
ltibia -3.64
lfoot -14.8139 47.4299
ltoes 7.34539
599
root -0.167417 17.5822 7.80959 7.33167 -0.439332 -8.01788
lowerback 4.1874 2.07737 3.31687
upperback -7.55218 3.19556 0.818426
thorax -10.2541 1.33584 -1.3914
lowerneck -13.5251 -6.51697 -3.34242
upperneck 25.8132 -11.3533 10.0613
head 11.4448 -4.31747 2.62654
rclavicle -1.54058e-014 -4.05521e-014
rhumerus -17.8701 33.7892 -98.7048
rradius 104.111
rwrist -11.7623
rhand -9.82757 -57.1158
rfingers 7.12502
rthumb 16.1497 -1526.46
lclavicle -1.54058e-014 -4.05521e-014
lhumerus -33.254 -22.9491 101.547
lradius 90.1039
lwrist 4.83416
lhand -39.4735 -6.79849
lfingers 7.12502
lthumb -12.4602 22.8101
rfemur -0.720439 24.4462 25.2631
rtibia 1.86445
rfoot -12.2789 -23.4703
rtoes 0.507444
lfemur 6.50462 -39.5633 -15.5822
ltibia -3.65575
lfoot -14.7305 47.4684
ltoes 7.20087
600
root -0.170122 17.5812 7.81227 7.16667 -0.685723 -8.10117
lowerback 4.23721 2.03408 3.34796
upperback -7.56786 3.14905 0.893014
thorax -10.3069 1.31266 -1.32585
lowerneck -13.4869 -6.42648 -3.34102
upperneck 25.9949 -11.1957 9.88448
head 11.4798 -4.26242 2.58905
rclavicle -1.10325e-014 -3.10104e-014
rhumerus -16.9724 33.855 -98.5653
rradius 101.342
rwrist -12.2241
rhand -8.60615 -57.553
rfingers 7.12502
rthumb 17.3255 -1526.8
lclavicle -1.10325e-014 -3.10104e-014
lhumerus -33.453 -22.7624 101.522
lradius 90.2536
lwrist 4.74019
lhand -39.611 -6.97921
lfingers 7.12502
lthumb -12.5927 22.6212
rfemur -0.518296 24.511 25.4574
rtibia 1.89209
rfoot -12.2599 -23.3052
rtoes 0.611099
lfemur 6.86813 -39.375 -15.7127
ltibia -3.70562
lfoot -14.8271 47.5343
ltoes 7.34818
